# xmcd CD database file
#
# Track frame offsets:
#	150
#	32942
#	75995
#	119445
#	163867
#	214257
#
# Disc length: 3162 seconds
#
# Revision: 0
# Processed by: cddbd v1.5.1PL0 Copyright (c) Steve Scherf et al.
# Submitted via: CDex 1.51
#
DISCID=4c0c5806
DTITLE=rude - This is.... rude
DYEAR=2002
DGENRE=Jazz
TTITLE0=Tranquility Base
TTITLE1=On The Shoulders of Giants
TTITLE2=This is Rude
TTITLE3=Hello Max
TTITLE4=The Crack (between the worlds)
TTITLE5=Gravitation Boogie
EXTD=YEAR: 2002
EXTT0=
EXTT1=
EXTT2=
EXTT3=
EXTT4=
EXTT5=
PLAYORDER=
